{
    "asset" : {
        "generator" : "Khronos glTF Blender I/O v1.3.48",
        "version" : "2.0"
    },
    "scene" : 0,
    "scenes" : [
        {
            "name" : "Scene",
            "nodes" : [
                0,
                1
            ]
        }
    ],
    "nodes" : [
        {
            "mesh" : 0,
            "name" : "SCUDO3D",
            "rotation" : [
                0.7071068286895752,
                0,
                0,
                0.7071067094802856
            ],
            "translation" : [
                0,
                -0.17093981802463531,
                0
            ]
        },
        {
            "mesh" : 1,
            "name" : "PANNELLO",
            "scale" : [
                2.9599997997283936,
                1,
                2.9600000381469727
            ],
            "translation" : [
                0,
                0.06327376514673233,
                0
            ]
        }
    ],
    "materials" : [
        {
            "doubleSided" : true,
            "emissiveFactor" : [
                0,
                0,
                0
            ],
            "name" : "diffuse_Black.001",
            "pbrMetallicRoughness" : {
                "baseColorTexture" : {
                    "index" : 0,
                    "texCoord" : 0
                },
                "metallicFactor" : 0.8045454621315002,
                "roughnessFactor" : 1
            }
        }
    ],
    "meshes" : [
        {
            "name" : "SCUDO3D",
            "primitives" : [
                {
                    "attributes" : {
                        "POSITION" : 0,
                        "NORMAL" : 1,
                        "TEXCOORD_0" : 2
                    },
                    "indices" : 3,
                    "material" : 0
                }
            ]
        },
        {
            "name" : "Plane",
            "primitives" : [
                {
                    "attributes" : {
                        "POSITION" : 4,
                        "NORMAL" : 5,
                        "TEXCOORD_0" : 6
                    },
                    "indices" : 7
                }
            ]
        }
    ],
    "textures" : [
        {
            "sampler" : 0,
            "source" : 0
        }
    ],
    "images" : [
        {
            "mimeType" : "image/jpeg",
            "name" : "GOLD",
            "uri" : "GOLD.jpg"
        }
    ],
    "accessors" : [
        {
            "bufferView" : 0,
            "componentType" : 5126,
            "count" : 278,
            "max" : [
                3.3513381481170654,
                4.738378524780273,
                0
            ],
            "min" : [
                -3.3466010093688965,
                -3.8030524253845215,
                -0.5
            ],
            "type" : "VEC3"
        },
        {
            "bufferView" : 1,
            "componentType" : 5126,
            "count" : 278,
            "type" : "VEC3"
        },
        {
            "bufferView" : 2,
            "componentType" : 5126,
            "count" : 278,
            "type" : "VEC2"
        },
        {
            "bufferView" : 3,
            "componentType" : 5123,
            "count" : 744,
            "type" : "SCALAR"
        },
        {
            "bufferView" : 4,
            "componentType" : 5126,
            "count" : 4,
            "max" : [
                1,
                0,
                1
            ],
            "min" : [
                -1,
                0,
                -1
            ],
            "type" : "VEC3"
        },
        {
            "bufferView" : 5,
            "componentType" : 5126,
            "count" : 4,
            "type" : "VEC3"
        },
        {
            "bufferView" : 6,
            "componentType" : 5126,
            "count" : 4,
            "type" : "VEC2"
        },
        {
            "bufferView" : 7,
            "componentType" : 5123,
            "count" : 6,
            "type" : "SCALAR"
        }
    ],
    "bufferViews" : [
        {
            "buffer" : 0,
            "byteLength" : 3336,
            "byteOffset" : 0
        },
        {
            "buffer" : 0,
            "byteLength" : 3336,
            "byteOffset" : 3336
        },
        {
            "buffer" : 0,
            "byteLength" : 2224,
            "byteOffset" : 6672
        },
        {
            "buffer" : 0,
            "byteLength" : 1488,
            "byteOffset" : 8896
        },
        {
            "buffer" : 0,
            "byteLength" : 48,
            "byteOffset" : 10384
        },
        {
            "buffer" : 0,
            "byteLength" : 48,
            "byteOffset" : 10432
        },
        {
            "buffer" : 0,
            "byteLength" : 32,
            "byteOffset" : 10480
        },
        {
            "buffer" : 0,
            "byteLength" : 12,
            "byteOffset" : 10512
        }
    ],
    "samplers" : [
        {
            "magFilter" : 9728,
            "minFilter" : 9984
        }
    ],
    "buffers" : [
        {
            "byteLength" : 10524,
            "uri" : "STEMMA_COMPLETO.bin"
        }
    ]
}
