{
  "asset": {
    "version": "2.0",
    "generator": "THREE.GLTFExporter"
  },
  "scenes": [
    {
      "name": "Scene",
      "nodes": [
        4
      ]
    }
  ],
  "scene": 0,
  "nodes": [
    {
      "matrix": [
        1,
        0,
        0,
        0,
        0,
        -1.3435885648505064e-7,
        0.9999999657714511,
        0,
        0,
        -0.9999999657714511,
        -1.3435885648505064e-7,
        0,
        -1.1319353580474854,
        11.061603546142578,
        4.872201442718506,
        1
      ],
      "name": "FINPAC_PPRGETTO_RHINO_mesh_vuota_GIUNTO001",
      "extras": {
        "name": "FINPAC_PPRGETTO_RHINO_mesh_vuota_GIUNTO.001"
      },
      "mesh": 0
    },
    {
      "matrix": [
        1,
        0,
        0,
        0,
        0,
        -1.3435885648505064e-7,
        0.9999999657714511,
        0,
        0,
        -0.9999999657714511,
        -1.3435885648505064e-7,
        0,
        -1.1317449808120728,
        11.720047950744629,
        4.872252464294434,
        1
      ],
      "name": "FINPAC_PPRGETTO_RHINO_mesh_vuota_SOLO_TAPPO002",
      "extras": {
        "name": "FINPAC_PPRGETTO_RHINO_mesh_vuota_SOLO_TAPPO.002"
      },
      "mesh": 1
    },
    {
      "matrix": [
        1,
        0,
        0,
        0,
        0,
        -1.3435885648505064e-7,
        0.9999999657714511,
        0,
        0,
        -0.9999999657714511,
        -1.3435885648505064e-7,
        0,
        -1.1315243244171143,
        8.108407974243164,
        4.87190055847168,
        1
      ],
      "name": "FINPAC_PPRGETTO_RHINO_mesh_vuota_DIVISA001",
      "extras": {
        "name": "FINPAC_PPRGETTO_RHINO_mesh_vuota_DIVISA.001"
      },
      "mesh": 2
    },
    {
      "matrix": [
        1,
        0,
        0,
        0,
        0,
        -1.3435885648505064e-7,
        0.9999999657714511,
        0,
        0,
        -0.9999999657714511,
        -1.3435885648505064e-7,
        0,
        -1.1316108703613281,
        2.1156678199768066,
        4.872101306915283,
        1
      ],
      "name": "FINPAC_PPRGETTO_RHINO_mesh_vuota_DIVISA_sotto001",
      "extras": {
        "name": "FINPAC_PPRGETTO_RHINO_mesh_vuota_DIVISA_sotto.001"
      },
      "mesh": 3
    },
    {
      "name": "B_FULL.gltf",
      "children": [
        0,
        1,
        2,
        3
      ]
    }
  ],
  "bufferViews": [
    {
      "buffer": 0,
      "byteOffset": 0,
      "byteLength": 26616,
      "target": 34962,
      "byteStride": 12
    },
    {
      "buffer": 0,
      "byteOffset": 26616,
      "byteLength": 26616,
      "target": 34962,
      "byteStride": 12
    },
    {
      "buffer": 0,
      "byteOffset": 53232,
      "byteLength": 17744,
      "target": 34962,
      "byteStride": 8
    },
    {
      "buffer": 0,
      "byteOffset": 70976,
      "byteLength": 23684,
      "target": 34963
    },
    {
      "buffer": 0,
      "byteOffset": 94660,
      "byteLength": 51180,
      "target": 34962,
      "byteStride": 12
    },
    {
      "buffer": 0,
      "byteOffset": 145840,
      "byteLength": 51180,
      "target": 34962,
      "byteStride": 12
    },
    {
      "buffer": 0,
      "byteOffset": 197020,
      "byteLength": 34120,
      "target": 34962,
      "byteStride": 8
    },
    {
      "buffer": 0,
      "byteOffset": 231140,
      "byteLength": 68240,
      "target": 34962,
      "byteStride": 16
    },
    {
      "buffer": 0,
      "byteOffset": 299380,
      "byteLength": 49224,
      "target": 34963
    },
    {
      "buffer": 0,
      "byteOffset": 348604,
      "byteLength": 21480,
      "target": 34962,
      "byteStride": 12
    },
    {
      "buffer": 0,
      "byteOffset": 370084,
      "byteLength": 21480,
      "target": 34962,
      "byteStride": 12
    },
    {
      "buffer": 0,
      "byteOffset": 391564,
      "byteLength": 14320,
      "target": 34962,
      "byteStride": 8
    },
    {
      "buffer": 0,
      "byteOffset": 405884,
      "byteLength": 28640,
      "target": 34962,
      "byteStride": 16
    },
    {
      "buffer": 0,
      "byteOffset": 434524,
      "byteLength": 20924,
      "target": 34963
    },
    {
      "buffer": 0,
      "byteOffset": 455448,
      "byteLength": 26052,
      "target": 34962,
      "byteStride": 12
    },
    {
      "buffer": 0,
      "byteOffset": 481500,
      "byteLength": 26052,
      "target": 34962,
      "byteStride": 12
    },
    {
      "buffer": 0,
      "byteOffset": 507552,
      "byteLength": 17368,
      "target": 34962,
      "byteStride": 8
    },
    {
      "buffer": 0,
      "byteOffset": 524920,
      "byteLength": 24804,
      "target": 34963
    }
  ],
  "buffers": [
    {
      "byteLength": 549724,
      "uri": "data:application/octet-stream;base64,"
    }
  ],
  "accessors": [
    {
      "bufferView": 0,
      "componentType": 5126,
      "count": 2218,
      "max": [
        0.9139566421508789,
        0.9135416150093079,
        0.3728456497192383
      ],
      "min": [
        -0.9133400917053223,
        -0.9137549996376038,
        -0.26943492889404297
      ],
      "type": "VEC3"
    },
    {
      "bufferView": 1,
      "componentType": 5126,
      "count": 2218,
      "max": [
        0.9999998807907104,
        0.9999999403953552,
        0.9957910180091858
      ],
      "min": [
        -1,
        -1,
        -1
      ],
      "type": "VEC3"
    },
    {
      "bufferView": 2,
      "componentType": 5126,
      "count": 2218,
      "max": [
        0.31339722871780396,
        1
      ],
      "min": [
        0,
        0.00146484375
      ],
      "type": "VEC2"
    },
    {
      "bufferView": 3,
      "componentType": 5123,
      "count": 11841,
      "max": [
        2217
      ],
      "min": [
        0
      ],
      "type": "SCALAR"
    },
    {
      "bufferView": 4,
      "componentType": 5126,
      "count": 4265,
      "max": [
        0.8504372239112854,
        0.8501614332199097,
        0.5621042251586914
      ],
      "min": [
        -0.8502013683319092,
        -0.8504772186279297,
        -0.5802679061889648
      ],
      "type": "VEC3"
    },
    {
      "bufferView": 5,
      "componentType": 5126,
      "count": 4265,
      "max": [
        0.9999985098838806,
        0.9999985098838806,
        1.0000001192092896
      ],
      "min": [
        -0.9999984502792358,
        -0.9999985098838806,
        -0.9999844431877136
      ],
      "type": "VEC3"
    },
    {
      "bufferView": 6,
      "componentType": 5126,
      "count": 4265,
      "max": [
        1,
        1
      ],
      "min": [
        0,
        0
      ],
      "type": "VEC2"
    },
    {
      "bufferView": 7,
      "componentType": 5126,
      "count": 4265,
      "max": [
        1,
        1,
        0.995019257068634,
        1
      ],
      "min": [
        -1,
        -1,
        -0.9988095760345459,
        -1
      ],
      "type": "VEC4"
    },
    {
      "bufferView": 8,
      "componentType": 5123,
      "count": 24612,
      "max": [
        4264
      ],
      "min": [
        0
      ],
      "type": "SCALAR"
    },
    {
      "bufferView": 9,
      "componentType": 5126,
      "count": 1790,
      "max": [
        1.8209710121154785,
        1.8211127519607544,
        3.183558940887451
      ],
      "min": [
        -1.8212146759033203,
        -1.8204624652862549,
        -2.580349922180176
      ],
      "type": "VEC3"
    },
    {
      "bufferView": 10,
      "componentType": 5126,
      "count": 1790,
      "max": [
        0.9998398423194885,
        0.9997550249099731,
        0.08735696971416473
      ],
      "min": [
        -0.9999837875366211,
        -0.9996107816696167,
        -0.7900447249412537
      ],
      "type": "VEC3"
    },
    {
      "bufferView": 11,
      "componentType": 5126,
      "count": 1790,
      "max": [
        1.001697301864624,
        0.5256410837173462
      ],
      "min": [
        -0.0016973018646240234,
        0.009299993515014648
      ],
      "type": "VEC2"
    },
    {
      "bufferView": 12,
      "componentType": 5126,
      "count": 1790,
      "max": [
        0.9999318718910217,
        0.9999998807907104,
        0.5477296710014343,
        1
      ],
      "min": [
        -0.9999926090240479,
        -0.9999907612800598,
        -0.6039183139801025,
        -1
      ],
      "type": "VEC4"
    },
    {
      "bufferView": 13,
      "componentType": 5123,
      "count": 10461,
      "max": [
        1789
      ],
      "min": [
        0
      ],
      "type": "SCALAR"
    },
    {
      "bufferView": 14,
      "componentType": 5126,
      "count": 2171,
      "max": [
        1.8294181823730469,
        1.8294261693954468,
        1.848008632659912
      ],
      "min": [
        -1.8294506072998047,
        -1.8294426202774048,
        -2.8091812133789062
      ],
      "type": "VEC3"
    },
    {
      "bufferView": 15,
      "componentType": 5126,
      "count": 2171,
      "max": [
        0.9999948143959045,
        0.9999948740005493,
        0.9999999403953552
      ],
      "min": [
        -0.999994695186615,
        -0.9999948143959045,
        -0.14645913243293762
      ],
      "type": "VEC3"
    },
    {
      "bufferView": 16,
      "componentType": 5126,
      "count": 2171,
      "max": [
        0.7086904644966125,
        0.9227786064147949
      ],
      "min": [
        0.23225072026252747,
        0.4463388919830322
      ],
      "type": "VEC2"
    },
    {
      "bufferView": 17,
      "componentType": 5123,
      "count": 12402,
      "max": [
        2170
      ],
      "min": [
        0
      ],
      "type": "SCALAR"
    }
  ],
  "materials": [
    {
      "pbrMetallicRoughness": {
        "baseColorFactor": [
          0.8000000715255737,
          0.8000000715255737,
          0.8000000715255737,
          0.36624783277511597
        ],
        "metallicFactor": 0.4954543709754944,
        "roughnessFactor": 0
      },
      "alphaMode": "BLEND",
      "name": "diffuse_Black.003"
    },
    {
      "pbrMetallicRoughness": {
        "baseColorFactor": [
          0,
          0,
          0.20784313725490197,
          1
        ],
        "metallicFactor": 0,
        "roughnessFactor": 0.5
      },
      "doubleSided": true,
      "name": "TAPPO.001"
    },
    {
      "pbrMetallicRoughness": {
        "metallicFactor": 0.17272725701332092,
        "roughnessFactor": 0,
        "baseColorTexture": {
          "index": 0
        }
      },
      "doubleSided": true,
      "name": "diffuse_Black.002"
    },
    {
      "pbrMetallicRoughness": {
        "metallicFactor": 0.17272725701332092,
        "roughnessFactor": 0,
        "baseColorTexture": {
          "index": 1
        }
      },
      "name": "diffuse_Black.005"
    }
  ],
  "meshes": [
    {
      "primitives": [
        {
          "mode": 4,
          "attributes": {
            "POSITION": 0,
            "NORMAL": 1,
            "TEXCOORD_0": 2
          },
          "indices": 3,
          "material": 0
        }
      ]
    },
    {
      "primitives": [
        {
          "mode": 4,
          "attributes": {
            "POSITION": 4,
            "NORMAL": 5,
            "TEXCOORD_0": 6,
            "TANGENT": 7
          },
          "indices": 8,
          "material": 1
        }
      ]
    },
    {
      "primitives": [
        {
          "mode": 4,
          "attributes": {
            "POSITION": 9,
            "NORMAL": 10,
            "TEXCOORD_0": 11,
            "TANGENT": 12
          },
          "indices": 13,
          "material": 2
        }
      ]
    },
    {
      "primitives": [
        {
          "mode": 4,
          "attributes": {
            "POSITION": 14,
            "NORMAL": 15,
            "TEXCOORD_0": 16
          },
          "indices": 17,
          "material": 3
        }
      ]
    }
  ],
  "textures": [
    {
      "sampler": 0,
      "source": 0
    },
    {
      "sampler": 1,
      "source": 1
    }
  ],
  "samplers": [
    {
      "magFilter": 9729,
      "minFilter": 9987,
      "wrapS": 33071,
      "wrapT": 33071
    },
    {
      "magFilter": 9729,
      "minFilter": 9987,
      "wrapS": 33071,
      "wrapT": 33071
    }
  ],
  "images": [
    {
      "mimeType": "image/png",
      "uri": "data:image/png;base64,"
    },
    {
      "mimeType": "image/png",
      "uri": "data:image/png;base64,"
    }
  ]
}