{
  "asset": {
    "version": "2.0",
    "generator": "THREE.GLTFExporter"
  },
  "scenes": [
    {
      "name": "Scene",
      "nodes": [
        4
      ]
    }
  ],
  "scene": 0,
  "nodes": [
    {
      "matrix": [
        0.04595073120240123,
        3.321897068531143e-8,
        0.9989439108005556,
        0,
        -0.9989439108005449,
        -3.613914287825537e-7,
        0.0459509443064654,
        0,
        1.496571755410514e-7,
        -1.0000002131040482,
        -1.8673412149894375e-7,
        0,
        -0.04159943014383316,
        1.9479618072509766,
        0.0001135247148340568,
        1
      ],
      "name": "FINPAC_PPRGETTO_RHINO_mesh_vuota_DIVISA_sotto",
      "extras": {
        "name": "FINPAC_PPRGETTO_RHINO_mesh_vuota_DIVISA_sotto"
      },
      "mesh": 0
    },
    {
      "matrix": [
        0.04595073120240123,
        3.321897068531143e-8,
        0.9989439108005556,
        0,
        -0.9989439108005449,
        -3.613914287825537e-7,
        0.0459509443064654,
        0,
        1.496571755410514e-7,
        -1.0000002131040482,
        -1.8673412149894375e-7,
        0,
        -0.041714198887348175,
        10.89389705657959,
        -0.00020602470613084733,
        1
      ],
      "name": "FINPAC_PPRGETTO_RHINO_mesh_vuota_GIUNTO",
      "extras": {
        "name": "FINPAC_PPRGETTO_RHINO_mesh_vuota_GIUNTO"
      },
      "mesh": 1
    },
    {
      "matrix": [
        0.04595073120240123,
        3.321897068531143e-8,
        0.9989439108005556,
        0,
        -0.9989439108005449,
        -3.613914287825537e-7,
        0.0459509443064654,
        0,
        1.496571755410514e-7,
        -1.0000002131040482,
        -1.8673412149894375e-7,
        0,
        -0.04175671190023422,
        11.552342414855957,
        -0.000013490818673744798,
        1
      ],
      "name": "FINPAC_PPRGETTO_RHINO_mesh_vuota_SOLO_TAPPO001",
      "extras": {
        "name": "FINPAC_PPRGETTO_RHINO_mesh_vuota_SOLO_TAPPO.001"
      },
      "mesh": 2
    },
    {
      "matrix": [
        0.04595073120240123,
        3.321897068531143e-8,
        0.9989439108005556,
        0,
        -0.9989439108005449,
        -3.613914287825537e-7,
        0.0459509443064654,
        0,
        1.496571755410514e-7,
        -1.0000002131040482,
        -1.8673412149894375e-7,
        0,
        -0.04139506071805954,
        7.940701961517334,
        0.00019076080934610218,
        1
      ],
      "name": "FINPAC_PPRGETTO_RHINO_mesh_vuota_DIVISA",
      "extras": {
        "name": "FINPAC_PPRGETTO_RHINO_mesh_vuota_DIVISA"
      },
      "mesh": 3
    },
    {
      "name": "B_HALF.gltf",
      "children": [
        0,
        1,
        2,
        3
      ]
    }
  ],
  "bufferViews": [
    {
      "buffer": 0,
      "byteOffset": 0,
      "byteLength": 26052,
      "target": 34962,
      "byteStride": 12
    },
    {
      "buffer": 0,
      "byteOffset": 26052,
      "byteLength": 26052,
      "target": 34962,
      "byteStride": 12
    },
    {
      "buffer": 0,
      "byteOffset": 52104,
      "byteLength": 17368,
      "target": 34962,
      "byteStride": 8
    },
    {
      "buffer": 0,
      "byteOffset": 69472,
      "byteLength": 24804,
      "target": 34963
    },
    {
      "buffer": 0,
      "byteOffset": 94276,
      "byteLength": 26616,
      "target": 34962,
      "byteStride": 12
    },
    {
      "buffer": 0,
      "byteOffset": 120892,
      "byteLength": 26616,
      "target": 34962,
      "byteStride": 12
    },
    {
      "buffer": 0,
      "byteOffset": 147508,
      "byteLength": 17744,
      "target": 34962,
      "byteStride": 8
    },
    {
      "buffer": 0,
      "byteOffset": 165252,
      "byteLength": 23684,
      "target": 34963
    },
    {
      "buffer": 0,
      "byteOffset": 188936,
      "byteLength": 51180,
      "target": 34962,
      "byteStride": 12
    },
    {
      "buffer": 0,
      "byteOffset": 240116,
      "byteLength": 51180,
      "target": 34962,
      "byteStride": 12
    },
    {
      "buffer": 0,
      "byteOffset": 291296,
      "byteLength": 34120,
      "target": 34962,
      "byteStride": 8
    },
    {
      "buffer": 0,
      "byteOffset": 325416,
      "byteLength": 68240,
      "target": 34962,
      "byteStride": 16
    },
    {
      "buffer": 0,
      "byteOffset": 393656,
      "byteLength": 49224,
      "target": 34963
    },
    {
      "buffer": 0,
      "byteOffset": 442880,
      "byteLength": 21480,
      "target": 34962,
      "byteStride": 12
    },
    {
      "buffer": 0,
      "byteOffset": 464360,
      "byteLength": 21480,
      "target": 34962,
      "byteStride": 12
    },
    {
      "buffer": 0,
      "byteOffset": 485840,
      "byteLength": 14320,
      "target": 34962,
      "byteStride": 8
    },
    {
      "buffer": 0,
      "byteOffset": 500160,
      "byteLength": 28640,
      "target": 34962,
      "byteStride": 16
    },
    {
      "buffer": 0,
      "byteOffset": 528800,
      "byteLength": 20924,
      "target": 34963
    }
  ],
  "buffers": [
    {
      "byteLength": 549724,
      "uri": "data:application/octet-stream;base64,"
    }
  ],
  "accessors": [
    {
      "bufferView": 0,
      "componentType": 5126,
      "count": 2171,
      "max": [
        1.8294181823730469,
        1.8294261693954468,
        1.848008632659912
      ],
      "min": [
        -1.8294506072998047,
        -1.8294426202774048,
        -2.8091812133789062
      ],
      "type": "VEC3"
    },
    {
      "bufferView": 1,
      "componentType": 5126,
      "count": 2171,
      "max": [
        0.9999948143959045,
        0.9999948740005493,
        0.9999999403953552
      ],
      "min": [
        -0.999994695186615,
        -0.9999948143959045,
        -0.14645913243293762
      ],
      "type": "VEC3"
    },
    {
      "bufferView": 2,
      "componentType": 5126,
      "count": 2171,
      "max": [
        1,
        1
      ],
      "min": [
        0,
        0
      ],
      "type": "VEC2"
    },
    {
      "bufferView": 3,
      "componentType": 5123,
      "count": 12402,
      "max": [
        2170
      ],
      "min": [
        0
      ],
      "type": "SCALAR"
    },
    {
      "bufferView": 4,
      "componentType": 5126,
      "count": 2218,
      "max": [
        0.9139566421508789,
        0.9135416150093079,
        0.3728456497192383
      ],
      "min": [
        -0.9133400917053223,
        -0.9137549996376038,
        -0.26943492889404297
      ],
      "type": "VEC3"
    },
    {
      "bufferView": 5,
      "componentType": 5126,
      "count": 2218,
      "max": [
        0.9999998807907104,
        0.9999999403953552,
        0.9957910180091858
      ],
      "min": [
        -1,
        -1,
        -1
      ],
      "type": "VEC3"
    },
    {
      "bufferView": 6,
      "componentType": 5126,
      "count": 2218,
      "max": [
        0.31339722871780396,
        1
      ],
      "min": [
        0,
        0.00146484375
      ],
      "type": "VEC2"
    },
    {
      "bufferView": 7,
      "componentType": 5123,
      "count": 11841,
      "max": [
        2217
      ],
      "min": [
        0
      ],
      "type": "SCALAR"
    },
    {
      "bufferView": 8,
      "componentType": 5126,
      "count": 4265,
      "max": [
        0.8504372239112854,
        0.8501614332199097,
        0.5621042251586914
      ],
      "min": [
        -0.8502013683319092,
        -0.8504772186279297,
        -0.5802679061889648
      ],
      "type": "VEC3"
    },
    {
      "bufferView": 9,
      "componentType": 5126,
      "count": 4265,
      "max": [
        0.9999985098838806,
        0.9999985098838806,
        1.0000001192092896
      ],
      "min": [
        -0.9999984502792358,
        -0.9999985098838806,
        -0.9999844431877136
      ],
      "type": "VEC3"
    },
    {
      "bufferView": 10,
      "componentType": 5126,
      "count": 4265,
      "max": [
        1,
        1
      ],
      "min": [
        0,
        0
      ],
      "type": "VEC2"
    },
    {
      "bufferView": 11,
      "componentType": 5126,
      "count": 4265,
      "max": [
        1,
        1,
        0.995019257068634,
        1
      ],
      "min": [
        -1,
        -1,
        -0.9988095760345459,
        -1
      ],
      "type": "VEC4"
    },
    {
      "bufferView": 12,
      "componentType": 5123,
      "count": 24612,
      "max": [
        4264
      ],
      "min": [
        0
      ],
      "type": "SCALAR"
    },
    {
      "bufferView": 13,
      "componentType": 5126,
      "count": 1790,
      "max": [
        1.8209710121154785,
        1.8211127519607544,
        3.183558940887451
      ],
      "min": [
        -1.8212146759033203,
        -1.8204624652862549,
        -2.580349922180176
      ],
      "type": "VEC3"
    },
    {
      "bufferView": 14,
      "componentType": 5126,
      "count": 1790,
      "max": [
        0.9998398423194885,
        0.9997550249099731,
        0.08735696971416473
      ],
      "min": [
        -0.9999837875366211,
        -0.9996107816696167,
        -0.7900447249412537
      ],
      "type": "VEC3"
    },
    {
      "bufferView": 15,
      "componentType": 5126,
      "count": 1790,
      "max": [
        1.001697301864624,
        0.5256410837173462
      ],
      "min": [
        -0.0016973018646240234,
        0.009299993515014648
      ],
      "type": "VEC2"
    },
    {
      "bufferView": 16,
      "componentType": 5126,
      "count": 1790,
      "max": [
        0.9999318718910217,
        0.9999998807907104,
        0.5477296710014343,
        1
      ],
      "min": [
        -0.9999926090240479,
        -0.9999907612800598,
        -0.6039183139801025,
        -1
      ],
      "type": "VEC4"
    },
    {
      "bufferView": 17,
      "componentType": 5123,
      "count": 10461,
      "max": [
        1789
      ],
      "min": [
        0
      ],
      "type": "SCALAR"
    }
  ],
  "materials": [
    {
      "pbrMetallicRoughness": {
        "baseColorFactor": [
          0.8000000715255737,
          0.8000000715255737,
          0.8000000715255737,
          0.36624783277511597
        ],
        "metallicFactor": 0.4954543709754944,
        "roughnessFactor": 0
      },
      "alphaMode": "BLEND",
      "name": "diffuse_Black.003"
    },
    {
      "pbrMetallicRoughness": {
        "baseColorFactor": [
          0.002067307475954294,
          0.0014916927320882678,
          0.20791654288768768,
          1
        ],
        "metallicFactor": 0,
        "roughnessFactor": 0.5
      },
      "doubleSided": true,
      "name": "TAPPO"
    },
    {
      "pbrMetallicRoughness": {
        "metallicFactor": 0.17272725701332092,
        "roughnessFactor": 0,
        "baseColorTexture": {
          "index": 0
        }
      },
      "doubleSided": true,
      "name": "diffuse_Black.004"
    }
  ],
  "meshes": [
    {
      "primitives": [
        {
          "mode": 4,
          "attributes": {
            "POSITION": 0,
            "NORMAL": 1,
            "TEXCOORD_0": 2
          },
          "indices": 3,
          "material": 0
        }
      ]
    },
    {
      "primitives": [
        {
          "mode": 4,
          "attributes": {
            "POSITION": 4,
            "NORMAL": 5,
            "TEXCOORD_0": 6
          },
          "indices": 7,
          "material": 0
        }
      ]
    },
    {
      "primitives": [
        {
          "mode": 4,
          "attributes": {
            "POSITION": 8,
            "NORMAL": 9,
            "TEXCOORD_0": 10,
            "TANGENT": 11
          },
          "indices": 12,
          "material": 1
        }
      ]
    },
    {
      "primitives": [
        {
          "mode": 4,
          "attributes": {
            "POSITION": 13,
            "NORMAL": 14,
            "TEXCOORD_0": 15,
            "TANGENT": 16
          },
          "indices": 17,
          "material": 2
        }
      ]
    }
  ],
  "textures": [
    {
      "sampler": 0,
      "source": 0
    }
  ],
  "samplers": [
    {
      "magFilter": 9729,
      "minFilter": 9987,
      "wrapS": 10497,
      "wrapT": 10497
    }
  ],
  "images": [
    {
      "mimeType": "image/jpeg",
      "uri": "data:image/jpeg;base64,"
    }
  ]
}