{
    "asset" : {
        "generator" : "Khronos glTF Blender I/O v1.3.48",
        "version" : "2.0"
    },
    "scene" : 0,
    "scenes" : [
        {
            "name" : "Scene",
            "nodes" : [
                0,
                1,
                2
            ]
        }
    ],
    "nodes" : [
        {
            "mesh" : 0,
            "name" : "EUDA_GLASS",
            "rotation" : [
                0.3917188048362732,
                -0.5886903405189514,
                0.588690459728241,
                0.3917187452316284
            ],
            "scale" : [
                0.03192023187875748,
                0.03192023187875748,
                0.03192023187875748
            ],
            "translation" : [
                -0.1512007713317871,
                1.1239680051803589,
                -0.11722050607204437
            ]
        },
        {
            "mesh" : 1,
            "name" : "EUDA_BUSTO",
            "scale" : [
                0.20000000298023224,
                0.20000000298023224,
                0.20000000298023224
            ]
        },
        {
            "mesh" : 2,
            "name" : "EUDA_FACE",
            "rotation" : [
                -0.025015929713845253,
                -0.8602110147476196,
                -0.048795025795698166,
                0.5069814920425415
            ],
            "scale" : [
                0.42453595995903015,
                0.4291742146015167,
                0.4340372085571289
            ],
            "translation" : [
                0.08538005501031876,
                0.9735990762710571,
                0.033731549978256226
            ]
        }
    ],
    "materials" : [
        {
            "alphaMode" : "BLEND",
            "emissiveFactor" : [
                0,
                0,
                0
            ],
            "name" : "blinn1SG",
            "pbrMetallicRoughness" : {
                "baseColorFactor" : [
                    1,
                    1,
                    1,
                    1
                ],
                "metallicFactor" : 1,
                "roughnessFactor" : 1
            }
        },
        {
            "alphaMode" : "BLEND",
            "doubleSided" : true,
            "emissiveFactor" : [
                0,
                0,
                0
            ],
            "name" : "Vuplnus_1_Blue:blinn17SG",
            "pbrMetallicRoughness" : {
                "baseColorFactor" : [
                    1,
                    1,
                    1,
                    1
                ],
                "metallicFactor" : 1,
                "roughnessFactor" : 0
            }
        },
        {
            "alphaMode" : "BLEND",
            "doubleSided" : true,
            "emissiveFactor" : [
                0,
                0,
                0
            ],
            "name" : "blinn2SG",
            "pbrMetallicRoughness" : {
                "baseColorFactor" : [
                    0.18000000715255737,
                    0.18000000715255737,
                    0.18000000715255737,
                    1
                ],
                "metallicFactor" : 0,
                "roughnessFactor" : 1
            }
        },
        {
            "alphaMode" : "BLEND",
            "doubleSided" : true,
            "emissiveFactor" : [
                0,
                0,
                0
            ],
            "name" : "blinn3SG",
            "pbrMetallicRoughness" : {
                "baseColorFactor" : [
                    0,
                    0,
                    0,
                    1
                ],
                "metallicFactor" : 0,
                "roughnessFactor" : 1
            }
        },
        {
            "doubleSided" : true,
            "emissiveFactor" : [
                0,
                0,
                0
            ],
            "name" : "Caverson - LowPoly",
            "pbrMetallicRoughness" : {
                "baseColorFactor" : [
                    1,
                    1,
                    1,
                    1
                ],
                "baseColorTexture" : {
                    "index" : 0,
                    "texCoord" : 0
                },
                "metallicFactor" : 1,
                "roughnessFactor" : 1
            }
        },
        {
            "doubleSided" : true,
            "emissiveFactor" : [
                0,
                0,
                0
            ],
            "name" : "kt_facebuilder_material",
            "pbrMetallicRoughness" : {
                "baseColorFactor" : [
                    0.6348130106925964,
                    0.6050474643707275,
                    0.5379812121391296,
                    1
                ],
                "baseColorTexture" : {
                    "index" : 1,
                    "texCoord" : 0
                },
                "metallicFactor" : 0,
                "roughnessFactor" : 1
            }
        }
    ],
    "meshes" : [
        {
            "name" : "objGlasses",
            "primitives" : [
                {
                    "attributes" : {
                        "POSITION" : 0,
                        "NORMAL" : 1,
                        "TEXCOORD_0" : 2
                    },
                    "indices" : 3,
                    "material" : 0
                },
                {
                    "attributes" : {
                        "POSITION" : 4,
                        "NORMAL" : 5,
                        "TEXCOORD_0" : 6
                    },
                    "indices" : 7,
                    "material" : 1
                },
                {
                    "attributes" : {
                        "POSITION" : 8,
                        "NORMAL" : 9,
                        "TEXCOORD_0" : 10
                    },
                    "indices" : 11,
                    "material" : 2
                },
                {
                    "attributes" : {
                        "POSITION" : 12,
                        "NORMAL" : 13,
                        "TEXCOORD_0" : 14
                    },
                    "indices" : 15,
                    "material" : 3
                }
            ]
        },
        {
            "name" : "Caverson - LowPoly",
            "primitives" : [
                {
                    "attributes" : {
                        "POSITION" : 16,
                        "NORMAL" : 17,
                        "TEXCOORD_0" : 18
                    },
                    "indices" : 19,
                    "material" : 4
                }
            ]
        },
        {
            "name" : "FaceBuilderHead_mesh",
            "primitives" : [
                {
                    "attributes" : {
                        "POSITION" : 20,
                        "NORMAL" : 21,
                        "TEXCOORD_0" : 22
                    },
                    "indices" : 23,
                    "material" : 5
                }
            ]
        }
    ],
    "textures" : [
        {
            "source" : 0
        },
        {
            "source" : 1
        }
    ],
    "images" : [
        {
            "mimeType" : "image/jpeg",
            "name" : "Caverson - LowPoly",
            "uri" : "Caverson%20-%20LowPoly.jpg"
        },
        {
            "mimeType" : "image/png",
            "name" : "kt_facebuilder_texture",
            "uri" : "kt_facebuilder_texture.png"
        }
    ],
    "accessors" : [
        {
            "bufferView" : 0,
            "componentType" : 5126,
            "count" : 13156,
            "max" : [
                6.9175639152526855,
                6.367372989654541,
                2.534852981567383
            ],
            "min" : [
                -6.912391185760498,
                -2.1221981048583984,
                -2.537480115890503
            ],
            "type" : "VEC3"
        },
        {
            "bufferView" : 1,
            "componentType" : 5126,
            "count" : 13156,
            "type" : "VEC3"
        },
        {
            "bufferView" : 2,
            "componentType" : 5126,
            "count" : 13156,
            "type" : "VEC2"
        },
        {
            "bufferView" : 3,
            "componentType" : 5123,
            "count" : 67944,
            "type" : "SCALAR"
        },
        {
            "bufferView" : 4,
            "componentType" : 5126,
            "count" : 720,
            "max" : [
                5.943398952484131,
                6.115951061248779,
                2.414505958557129
            ],
            "min" : [
                -5.943398952484131,
                5.309577941894531,
                -2.3393290042877197
            ],
            "type" : "VEC3"
        },
        {
            "bufferView" : 5,
            "componentType" : 5126,
            "count" : 720,
            "type" : "VEC3"
        },
        {
            "bufferView" : 6,
            "componentType" : 5126,
            "count" : 720,
            "type" : "VEC2"
        },
        {
            "bufferView" : 7,
            "componentType" : 5123,
            "count" : 1080,
            "type" : "SCALAR"
        },
        {
            "bufferView" : 8,
            "componentType" : 5126,
            "count" : 1704,
            "max" : [
                6.931873798370361,
                5.526727199554443,
                -0.9823790192604065
            ],
            "min" : [
                -6.931873798370361,
                -2.121774911880493,
                -1.361590027809143
            ],
            "type" : "VEC3"
        },
        {
            "bufferView" : 9,
            "componentType" : 5126,
            "count" : 1704,
            "type" : "VEC3"
        },
        {
            "bufferView" : 10,
            "componentType" : 5126,
            "count" : 1704,
            "type" : "VEC2"
        },
        {
            "bufferView" : 11,
            "componentType" : 5123,
            "count" : 4752,
            "type" : "SCALAR"
        },
        {
            "bufferView" : 12,
            "componentType" : 5126,
            "count" : 1266,
            "max" : [
                6.948486804962158,
                -2.0911478996276855,
                0.7857710123062134
            ],
            "min" : [
                -6.948485851287842,
                -9.011271476745605,
                -1.3809479475021362
            ],
            "type" : "VEC3"
        },
        {
            "bufferView" : 13,
            "componentType" : 5126,
            "count" : 1266,
            "type" : "VEC3"
        },
        {
            "bufferView" : 14,
            "componentType" : 5126,
            "count" : 1266,
            "type" : "VEC2"
        },
        {
            "bufferView" : 15,
            "componentType" : 5123,
            "count" : 6072,
            "type" : "SCALAR"
        },
        {
            "bufferView" : 16,
            "componentType" : 5126,
            "count" : 133309,
            "max" : [
                4.846858024597168,
                8.861370086669922,
                5.866625785827637
            ],
            "min" : [
                -4.665048122406006,
                -7.139484405517578,
                -5.576080322265625
            ],
            "type" : "VEC3"
        },
        {
            "bufferView" : 17,
            "componentType" : 5126,
            "count" : 133309,
            "type" : "VEC3"
        },
        {
            "bufferView" : 18,
            "componentType" : 5126,
            "count" : 133309,
            "type" : "VEC2"
        },
        {
            "bufferView" : 19,
            "componentType" : 5125,
            "count" : 601422,
            "type" : "SCALAR"
        },
        {
            "bufferView" : 20,
            "componentType" : 5126,
            "count" : 17308,
            "max" : [
                0.7669708728790283,
                1.1984806060791016,
                1.2631454467773438
            ],
            "min" : [
                -0.7817108631134033,
                -0.9233154654502869,
                -0.6751115322113037
            ],
            "type" : "VEC3"
        },
        {
            "bufferView" : 21,
            "componentType" : 5126,
            "count" : 17308,
            "type" : "VEC3"
        },
        {
            "bufferView" : 22,
            "componentType" : 5126,
            "count" : 17308,
            "type" : "VEC2"
        },
        {
            "bufferView" : 23,
            "componentType" : 5123,
            "count" : 103146,
            "type" : "SCALAR"
        }
    ],
    "bufferViews" : [
        {
            "buffer" : 0,
            "byteLength" : 157872,
            "byteOffset" : 0
        },
        {
            "buffer" : 0,
            "byteLength" : 157872,
            "byteOffset" : 157872
        },
        {
            "buffer" : 0,
            "byteLength" : 105248,
            "byteOffset" : 315744
        },
        {
            "buffer" : 0,
            "byteLength" : 135888,
            "byteOffset" : 420992
        },
        {
            "buffer" : 0,
            "byteLength" : 8640,
            "byteOffset" : 556880
        },
        {
            "buffer" : 0,
            "byteLength" : 8640,
            "byteOffset" : 565520
        },
        {
            "buffer" : 0,
            "byteLength" : 5760,
            "byteOffset" : 574160
        },
        {
            "buffer" : 0,
            "byteLength" : 2160,
            "byteOffset" : 579920
        },
        {
            "buffer" : 0,
            "byteLength" : 20448,
            "byteOffset" : 582080
        },
        {
            "buffer" : 0,
            "byteLength" : 20448,
            "byteOffset" : 602528
        },
        {
            "buffer" : 0,
            "byteLength" : 13632,
            "byteOffset" : 622976
        },
        {
            "buffer" : 0,
            "byteLength" : 9504,
            "byteOffset" : 636608
        },
        {
            "buffer" : 0,
            "byteLength" : 15192,
            "byteOffset" : 646112
        },
        {
            "buffer" : 0,
            "byteLength" : 15192,
            "byteOffset" : 661304
        },
        {
            "buffer" : 0,
            "byteLength" : 10128,
            "byteOffset" : 676496
        },
        {
            "buffer" : 0,
            "byteLength" : 12144,
            "byteOffset" : 686624
        },
        {
            "buffer" : 0,
            "byteLength" : 1599708,
            "byteOffset" : 698768
        },
        {
            "buffer" : 0,
            "byteLength" : 1599708,
            "byteOffset" : 2298476
        },
        {
            "buffer" : 0,
            "byteLength" : 1066472,
            "byteOffset" : 3898184
        },
        {
            "buffer" : 0,
            "byteLength" : 2405688,
            "byteOffset" : 4964656
        },
        {
            "buffer" : 0,
            "byteLength" : 207696,
            "byteOffset" : 7370344
        },
        {
            "buffer" : 0,
            "byteLength" : 207696,
            "byteOffset" : 7578040
        },
        {
            "buffer" : 0,
            "byteLength" : 138464,
            "byteOffset" : 7785736
        },
        {
            "buffer" : 0,
            "byteLength" : 206292,
            "byteOffset" : 7924200
        }
    ],
    "buffers" : [
        {
            "byteLength" : 8130492,
            "uri" : "NEWBUSTO2.bin"
        }
    ]
}
