{"accessors" : [{"bufferView" : 0, "byteOffset" : 0, "componentType" : 5125, "count" : 1120344, "type" : "SCALAR", "max" : [1120323], "min" : [0]}, {"bufferView" : 1, "byteOffset" : 0, "componentType" : 5126, "count" : 1120324, "type" : "VEC3", "max" : [130, 85, 175], "min" : [-130, -85, -175]}, {"bufferView" : 1, "byteOffset" : 12, "componentType" : 5126, "count" : 1120324, "type" : "VEC3", "max" : [0.9999863505363464, 1.0000020265579224, 1.0000044107437134], "min" : [-1.0000019073486328, -0.9999991655349731, -1.0000044107437134]}], "asset" : {"generator" : "Aspose.3D 20.12.3", "version" : "2.0"}, "buffers" : [{"uri" : "buffer.bin", "byteLength" : 31369640}], "bufferViews" : [{"buffer" : 0, "byteOffset" : 0, "byteLength" : 4481376, "target" : 34963}, {"buffer" : 0, "byteOffset" : 4481380, "byteLength" : 26888256, "byteStride" : 24, "target" : 34962}], "meshes" : [{"primitives" : [{"attributes" : {"POSITION" : 1, "NORMAL" : 2}, "indices" : 0, "mode" : 4}]}], "nodes" : [{"mesh" : 0, "name" : ""}], "scene" : 0, "scenes" : [{"nodes" : [0]}]}