{
  "asset": {
    "version": "2.0",
    "generator": "THREE.GLTFExporter"
  },
  "scenes": [
    {
      "name": "Scene",
      "nodes": [
        2
      ]
    }
  ],
  "scene": 0,
  "nodes": [
    {
      "matrix": [
        0.3216451120014258,
        -4.584383411620554e-9,
        0.23120825518246205,
        0,
        -0.23120825518245922,
        -7.395989920224317e-8,
        0.32164511727764145,
        0,
        3.636677516323802e-8,
        -0.396122252256882,
        -6.372210955852853e-8,
        0,
        0.19027043879032135,
        2.9284164905548096,
        -4.537201404571533,
        1
      ],
      "name": "LATTINA_M",
      "extras": {
        "name": "LATTINA_M"
      },
      "mesh": 0
    },
    {
      "matrix": [
        0.3216451120014258,
        -4.584383411620554e-9,
        0.23120825518246205,
        0,
        -0.23120825518245922,
        -7.395989920224317e-8,
        0.32164511727764145,
        0,
        3.636677516323802e-8,
        -0.396122252256882,
        -6.372210955852853e-8,
        0,
        0.1903359293937683,
        4.304633140563965,
        -4.537137031555176,
        1
      ],
      "name": "LATTINA_T",
      "extras": {
        "name": "LATTINA_T"
      },
      "mesh": 1
    },
    {
      "name": "LATT.gltf",
      "children": [
        0,
        1
      ]
    }
  ],
  "bufferViews": [
    {
      "buffer": 0,
      "byteOffset": 0,
      "byteLength": 31824,
      "target": 34962,
      "byteStride": 12
    },
    {
      "buffer": 0,
      "byteOffset": 31824,
      "byteLength": 31824,
      "target": 34962,
      "byteStride": 12
    },
    {
      "buffer": 0,
      "byteOffset": 63648,
      "byteLength": 21216,
      "target": 34962,
      "byteStride": 8
    },
    {
      "buffer": 0,
      "byteOffset": 84864,
      "byteLength": 29636,
      "target": 34963
    },
    {
      "buffer": 0,
      "byteOffset": 114500,
      "byteLength": 4248,
      "target": 34962,
      "byteStride": 12
    },
    {
      "buffer": 0,
      "byteOffset": 118748,
      "byteLength": 4248,
      "target": 34962,
      "byteStride": 12
    },
    {
      "buffer": 0,
      "byteOffset": 122996,
      "byteLength": 2832,
      "target": 34962,
      "byteStride": 8
    },
    {
      "buffer": 0,
      "byteOffset": 125828,
      "byteLength": 3744,
      "target": 34963
    }
  ],
  "buffers": [
    {
      "byteLength": 129572,
      "uri": "data:application/octet-stream;base64,"
    }
  ],
  "accessors": [
    {
      "bufferView": 0,
      "componentType": 5126,
      "count": 2652,
      "max": [
        3.3039050102233887,
        3.2892966270446777,
        6.0541605949401855
      ],
      "min": [
        -3.2507362365722656,
        -3.290147542953491,
        -12.33230972290039
      ],
      "type": "VEC3"
    },
    {
      "bufferView": 1,
      "componentType": 5126,
      "count": 2652,
      "max": [
        0.9999213218688965,
        0.9980857372283936,
        1
      ],
      "min": [
        -0.999912440776825,
        -0.9980857372283936,
        -1.0000001192092896
      ],
      "type": "VEC3"
    },
    {
      "bufferView": 2,
      "componentType": 5126,
      "count": 2652,
      "max": [
        1,
        1
      ],
      "min": [
        0,
        0
      ],
      "type": "VEC2"
    },
    {
      "bufferView": 3,
      "componentType": 5123,
      "count": 14817,
      "max": [
        2651
      ],
      "min": [
        0
      ],
      "type": "SCALAR"
    },
    {
      "bufferView": 4,
      "componentType": 5126,
      "count": 354,
      "max": [
        3.9379830360412598,
        3.9379844665527344,
        8.837095260620117
      ],
      "min": [
        -3.937985420227051,
        -3.937983512878418,
        -8.402059555053711
      ],
      "type": "VEC3"
    },
    {
      "bufferView": 5,
      "componentType": 5126,
      "count": 354,
      "max": [
        1,
        1,
        0.7844367027282715
      ],
      "min": [
        -1.0000001192092896,
        -1,
        -0.8914402723312378
      ],
      "type": "VEC3"
    },
    {
      "bufferView": 6,
      "componentType": 5126,
      "count": 354,
      "max": [
        0.9024664163589478,
        0.7924391031265259
      ],
      "min": [
        -0.0011633336544036865,
        0.07085776329040527
      ],
      "type": "VEC2"
    },
    {
      "bufferView": 7,
      "componentType": 5123,
      "count": 1872,
      "max": [
        353
      ],
      "min": [
        0
      ],
      "type": "SCALAR"
    }
  ],
  "materials": [
    {
      "pbrMetallicRoughness": {
        "baseColorFactor": [
          0.43137254901960786,
          0.43137254901960786,
          0.43137254901960786,
          1
        ],
        "metallicFactor": 0,
        "roughnessFactor": 0.5
      },
      "name": "Material.001"
    },
    {
      "pbrMetallicRoughness": {
        "metallicFactor": 0.2772727310657501,
        "roughnessFactor": 0,
        "baseColorTexture": {
          "index": 0
        }
      },
      "name": "diffuse_Black.001"
    }
  ],
  "meshes": [
    {
      "primitives": [
        {
          "mode": 4,
          "attributes": {
            "POSITION": 0,
            "NORMAL": 1,
            "TEXCOORD_0": 2
          },
          "indices": 3,
          "material": 0
        }
      ]
    },
    {
      "primitives": [
        {
          "mode": 4,
          "attributes": {
            "POSITION": 4,
            "NORMAL": 5,
            "TEXCOORD_0": 6
          },
          "indices": 7,
          "material": 1
        }
      ]
    }
  ],
  "textures": [
    {
      "sampler": 0,
      "source": 0
    }
  ],
  "samplers": [
    {
      "magFilter": 9729,
      "minFilter": 9987,
      "wrapS": 33071,
      "wrapT": 33071
    }
  ],
  "images": [
    {
      "mimeType": "image/png",
      "uri": "data:image/png;base64,"
    }
  ]
}