{
    "asset" : {
        "generator" : "Khronos glTF Blender I/O v1.3.48",
        "version" : "2.0"
    },
    "scene" : 0,
    "scenes" : [
        {
            "name" : "Scene",
            "nodes" : [
                0,
                1
            ]
        }
    ],
    "nodes" : [
        {
            "mesh" : 0,
            "name" : "LATTINA_M",
            "rotation" : [
                0.7071068286895752,
                0,
                0,
                0.7071067094802856
            ],
            "translation" : [
                0.1084010899066925,
                -1.3104138374328613,
                -3.531672336976044e-05
            ]
        },
        {
            "mesh" : 1,
            "name" : "LATTINA_T",
            "rotation" : [
                0.7071068286895752,
                0,
                0,
                0.7071067094802856
            ],
            "translation" : [
                0,
                2.163806915283203,
                0
            ]
        }
    ],
    "materials" : [
        {
            "doubleSided" : true,
            "emissiveFactor" : [
                0,
                0,
                0
            ],
            "name" : "Material.001",
            "pbrMetallicRoughness" : {
                "baseColorFactor" : [
                    0.800000011920929,
                    0.800000011920929,
                    0.800000011920929,
                    1
                ],
                "metallicFactor" : 1,
                "roughnessFactor" : 0.5
            }
        },
        {
            "doubleSided" : true,
            "emissiveFactor" : [
                0,
                0,
                0
            ],
            "name" : "diffuse_Black.001",
            "pbrMetallicRoughness" : {
                "baseColorTexture" : {
                    "index" : 0,
                    "texCoord" : 0
                },
                "metallicFactor" : 0.2772727310657501,
                "roughnessFactor" : 0
            }
        }
    ],
    "meshes" : [
        {
            "name" : "LATTINA_M",
            "primitives" : [
                {
                    "attributes" : {
                        "POSITION" : 0,
                        "NORMAL" : 1,
                        "TEXCOORD_0" : 2
                    },
                    "indices" : 3,
                    "material" : 0
                }
            ]
        },
        {
            "name" : "LATTINA_T",
            "primitives" : [
                {
                    "attributes" : {
                        "POSITION" : 4,
                        "NORMAL" : 5,
                        "TEXCOORD_0" : 6
                    },
                    "indices" : 7,
                    "material" : 1
                }
            ]
        }
    ],
    "textures" : [
        {
            "source" : 0
        }
    ],
    "images" : [
        {
            "mimeType" : "image/jpeg",
            "name" : "BOTT_TEXTURE_GREEN",
            "uri" : "BOTT_TEXTURE_GREEN.jpg"
        }
    ],
    "accessors" : [
        {
            "bufferView" : 0,
            "componentType" : 5126,
            "count" : 2652,
            "max" : [
                3.3039050102233887,
                3.2892966270446777,
                6.0541605949401855
            ],
            "min" : [
                -3.2507362365722656,
                -3.290147542953491,
                -12.33230972290039
            ],
            "type" : "VEC3"
        },
        {
            "bufferView" : 1,
            "componentType" : 5126,
            "count" : 2652,
            "type" : "VEC3"
        },
        {
            "bufferView" : 2,
            "componentType" : 5126,
            "count" : 2652,
            "type" : "VEC2"
        },
        {
            "bufferView" : 3,
            "componentType" : 5123,
            "count" : 14817,
            "type" : "SCALAR"
        },
        {
            "bufferView" : 4,
            "componentType" : 5126,
            "count" : 354,
            "max" : [
                3.9379830360412598,
                3.9379844665527344,
                8.837095260620117
            ],
            "min" : [
                -3.937985420227051,
                -3.937983512878418,
                -8.402059555053711
            ],
            "type" : "VEC3"
        },
        {
            "bufferView" : 5,
            "componentType" : 5126,
            "count" : 354,
            "type" : "VEC3"
        },
        {
            "bufferView" : 6,
            "componentType" : 5126,
            "count" : 354,
            "type" : "VEC2"
        },
        {
            "bufferView" : 7,
            "componentType" : 5123,
            "count" : 1872,
            "type" : "SCALAR"
        }
    ],
    "bufferViews" : [
        {
            "buffer" : 0,
            "byteLength" : 31824,
            "byteOffset" : 0
        },
        {
            "buffer" : 0,
            "byteLength" : 31824,
            "byteOffset" : 31824
        },
        {
            "buffer" : 0,
            "byteLength" : 21216,
            "byteOffset" : 63648
        },
        {
            "buffer" : 0,
            "byteLength" : 29634,
            "byteOffset" : 84864
        },
        {
            "buffer" : 0,
            "byteLength" : 4248,
            "byteOffset" : 114500
        },
        {
            "buffer" : 0,
            "byteLength" : 4248,
            "byteOffset" : 118748
        },
        {
            "buffer" : 0,
            "byteLength" : 2832,
            "byteOffset" : 122996
        },
        {
            "buffer" : 0,
            "byteLength" : 3744,
            "byteOffset" : 125828
        }
    ],
    "buffers" : [
        {
            "byteLength" : 129572,
            "uri" : "LATTINA.bin"
        }
    ]
}
