{
    "asset" : {
        "generator" : "Khronos glTF Blender I/O v1.3.48",
        "version" : "2.0"
    },
    "scene" : 0,
    "scenes" : [
        {
            "name" : "Scene",
            "nodes" : [
                0,
                1,
                2,
                3,
                4
            ]
        }
    ],
    "nodes" : [
        {
            "mesh" : 0,
            "name" : "Cornice_novembre",
            "rotation" : [
                0.7071068286895752,
                0,
                0,
                0.7071067094802856
            ],
            "scale" : [
                0.31358617544174194,
                0.31358617544174194,
                0.31358617544174194
            ],
            "translation" : [
                0,
                0,
                0.23597708344459534
            ]
        },
        {
            "mesh" : 1,
            "name" : "Cornice_novembre.001",
            "rotation" : [
                0.7071068286895752,
                0,
                0,
                0.7071067094802856
            ],
            "scale" : [
                0.31358617544174194,
                0.31358617544174194,
                0.31358617544174194
            ],
            "translation" : [
                -0.009237263351678848,
                0,
                2.2243006229400635
            ]
        },
        {
            "mesh" : 2,
            "name" : "Cornice_novembre.002",
            "rotation" : [
                0.7071068286895752,
                0,
                0,
                0.7071067094802856
            ],
            "scale" : [
                0.1705855429172516,
                0.31358617544174194,
                0.31358617544174194
            ],
            "translation" : [
                -1.6577489376068115,
                0,
                0.02242998033761978
            ]
        },
        {
            "mesh" : 3,
            "name" : "Plane1",
            "rotation" : [
                0.7071068286895752,
                0,
                0,
                0.7071067094802856
            ],
            "scale" : [
                0.3140000104904175,
                0.3140000104904175,
                0.3140000104904175
            ],
            "translation" : [
                0,
                -0.05000000074505806,
                0
            ]
        },
        {
            "mesh" : 4,
            "name" : "Plane",
            "scale" : [
                3.0582051277160645,
                1,
                1.7462331056594849
            ],
            "translation" : [
                0,
                0.05000000074505806,
                0
            ]
        }
    ],
    "materials" : [
        {
            "doubleSided" : true,
            "emissiveFactor" : [
                0,
                0,
                0
            ],
            "name" : "Material",
            "pbrMetallicRoughness" : {
                "baseColorFactor" : [
                    0.03326883167028427,
                    0.03326883167028427,
                    0.03326883167028427,
                    1
                ],
                "metallicFactor" : 0,
                "roughnessFactor" : 1
            }
        },
        {
            "emissiveFactor" : [
                0,
                0,
                0
            ],
            "name" : "diffuse_Black.001",
            "pbrMetallicRoughness" : {
                "baseColorFactor" : [
                    1,
                    1,
                    1,
                    1
                ],
                "baseColorTexture" : {
                    "index" : 0,
                    "texCoord" : 0
                },
                "metallicFactor" : 0,
                "roughnessFactor" : 1
            }
        },
        {
            "doubleSided" : true,
            "emissiveFactor" : [
                0,
                0,
                0
            ],
            "name" : "diffuse_Black",
            "pbrMetallicRoughness" : {
                "baseColorFactor" : [
                    0.3263759911060333,
                    0.10769033432006836,
                    0,
                    1
                ],
                "metallicFactor" : 0,
                "roughnessFactor" : 0.631205677986145
            }
        },
        {
            "doubleSided" : true,
            "emissiveFactor" : [
                0,
                0,
                0
            ],
            "name" : "diffuse_Black.003",
            "pbrMetallicRoughness" : {
                "baseColorFactor" : [
                    0,
                    0,
                    0,
                    1
                ],
                "metallicFactor" : 0,
                "roughnessFactor" : 1
            }
        }
    ],
    "meshes" : [
        {
            "name" : "Cornice_novembre",
            "primitives" : [
                {
                    "attributes" : {
                        "POSITION" : 0,
                        "NORMAL" : 1,
                        "TEXCOORD_0" : 2
                    },
                    "indices" : 3,
                    "material" : 0
                }
            ]
        },
        {
            "name" : "Cornice_novembre.001",
            "primitives" : [
                {
                    "attributes" : {
                        "POSITION" : 4,
                        "NORMAL" : 5,
                        "TEXCOORD_0" : 6
                    },
                    "indices" : 7,
                    "material" : 1
                }
            ]
        },
        {
            "name" : "Cornice_novembre.002",
            "primitives" : [
                {
                    "attributes" : {
                        "POSITION" : 8,
                        "NORMAL" : 9,
                        "TEXCOORD_0" : 10
                    },
                    "indices" : 11,
                    "material" : 2
                }
            ]
        },
        {
            "name" : "piano1",
            "primitives" : [
                {
                    "attributes" : {
                        "POSITION" : 12,
                        "NORMAL" : 13,
                        "TEXCOORD_0" : 14
                    },
                    "indices" : 15,
                    "material" : 3
                }
            ]
        },
        {
            "name" : "Plane.002",
            "primitives" : [
                {
                    "attributes" : {
                        "POSITION" : 16,
                        "NORMAL" : 17,
                        "TEXCOORD_0" : 18
                    },
                    "indices" : 19
                }
            ]
        }
    ],
    "textures" : [
        {
            "source" : 0
        }
    ],
    "images" : [
        {
            "mimeType" : "image/png",
            "name" : "SACRA",
            "uri" : "SACRA.png"
        }
    ],
    "accessors" : [
        {
            "bufferView" : 0,
            "componentType" : 5126,
            "count" : 748,
            "max" : [
                12.195743560791016,
                7.962180137634277,
                0.275834321975708
            ],
            "min" : [
                -12.125992774963379,
                -7.432024002075195,
                -0.27580058574676514
            ],
            "type" : "VEC3"
        },
        {
            "bufferView" : 1,
            "componentType" : 5126,
            "count" : 748,
            "type" : "VEC3"
        },
        {
            "bufferView" : 2,
            "componentType" : 5126,
            "count" : 748,
            "type" : "VEC2"
        },
        {
            "bufferView" : 3,
            "componentType" : 5123,
            "count" : 2094,
            "type" : "SCALAR"
        },
        {
            "bufferView" : 4,
            "componentType" : 5126,
            "count" : 258,
            "max" : [
                0.7448498606681824,
                0.7448506355285645,
                0.375908762216568
            ],
            "min" : [
                -0.7448498606681824,
                -0.7448492050170898,
                -0.3764147460460663
            ],
            "type" : "VEC3"
        },
        {
            "bufferView" : 5,
            "componentType" : 5126,
            "count" : 258,
            "type" : "VEC3"
        },
        {
            "bufferView" : 6,
            "componentType" : 5126,
            "count" : 258,
            "type" : "VEC2"
        },
        {
            "bufferView" : 7,
            "componentType" : 5123,
            "count" : 756,
            "type" : "SCALAR"
        },
        {
            "bufferView" : 8,
            "componentType" : 5126,
            "count" : 48,
            "max" : [
                30.55508041381836,
                5.400000095367432,
                0.2758174538612366
            ],
            "min" : [
                -11.203315734863281,
                -5.400000095367432,
                -0.2758174538612366
            ],
            "type" : "VEC3"
        },
        {
            "bufferView" : 9,
            "componentType" : 5126,
            "count" : 48,
            "type" : "VEC3"
        },
        {
            "bufferView" : 10,
            "componentType" : 5126,
            "count" : 48,
            "type" : "VEC2"
        },
        {
            "bufferView" : 11,
            "componentType" : 5123,
            "count" : 72,
            "type" : "SCALAR"
        },
        {
            "bufferView" : 12,
            "componentType" : 5126,
            "count" : 6,
            "max" : [
                9.600000381469727,
                5.449950695037842,
                -0.10951965302228928
            ],
            "min" : [
                -9.600000381469727,
                -5.400000095367432,
                -0.10951967537403107
            ],
            "type" : "VEC3"
        },
        {
            "bufferView" : 13,
            "componentType" : 5126,
            "count" : 6,
            "type" : "VEC3"
        },
        {
            "bufferView" : 14,
            "componentType" : 5126,
            "count" : 6,
            "type" : "VEC2"
        },
        {
            "bufferView" : 15,
            "componentType" : 5123,
            "count" : 12,
            "type" : "SCALAR"
        },
        {
            "bufferView" : 16,
            "componentType" : 5126,
            "count" : 4,
            "max" : [
                1,
                0,
                1
            ],
            "min" : [
                -1,
                0,
                -1
            ],
            "type" : "VEC3"
        },
        {
            "bufferView" : 17,
            "componentType" : 5126,
            "count" : 4,
            "type" : "VEC3"
        },
        {
            "bufferView" : 18,
            "componentType" : 5126,
            "count" : 4,
            "type" : "VEC2"
        },
        {
            "bufferView" : 19,
            "componentType" : 5123,
            "count" : 6,
            "type" : "SCALAR"
        }
    ],
    "bufferViews" : [
        {
            "buffer" : 0,
            "byteLength" : 8976,
            "byteOffset" : 0
        },
        {
            "buffer" : 0,
            "byteLength" : 8976,
            "byteOffset" : 8976
        },
        {
            "buffer" : 0,
            "byteLength" : 5984,
            "byteOffset" : 17952
        },
        {
            "buffer" : 0,
            "byteLength" : 4188,
            "byteOffset" : 23936
        },
        {
            "buffer" : 0,
            "byteLength" : 3096,
            "byteOffset" : 28124
        },
        {
            "buffer" : 0,
            "byteLength" : 3096,
            "byteOffset" : 31220
        },
        {
            "buffer" : 0,
            "byteLength" : 2064,
            "byteOffset" : 34316
        },
        {
            "buffer" : 0,
            "byteLength" : 1512,
            "byteOffset" : 36380
        },
        {
            "buffer" : 0,
            "byteLength" : 576,
            "byteOffset" : 37892
        },
        {
            "buffer" : 0,
            "byteLength" : 576,
            "byteOffset" : 38468
        },
        {
            "buffer" : 0,
            "byteLength" : 384,
            "byteOffset" : 39044
        },
        {
            "buffer" : 0,
            "byteLength" : 144,
            "byteOffset" : 39428
        },
        {
            "buffer" : 0,
            "byteLength" : 72,
            "byteOffset" : 39572
        },
        {
            "buffer" : 0,
            "byteLength" : 72,
            "byteOffset" : 39644
        },
        {
            "buffer" : 0,
            "byteLength" : 48,
            "byteOffset" : 39716
        },
        {
            "buffer" : 0,
            "byteLength" : 24,
            "byteOffset" : 39764
        },
        {
            "buffer" : 0,
            "byteLength" : 48,
            "byteOffset" : 39788
        },
        {
            "buffer" : 0,
            "byteLength" : 48,
            "byteOffset" : 39836
        },
        {
            "buffer" : 0,
            "byteLength" : 32,
            "byteOffset" : 39884
        },
        {
            "buffer" : 0,
            "byteLength" : 12,
            "byteOffset" : 39916
        }
    ],
    "buffers" : [
        {
            "byteLength" : 39928,
            "uri" : "CORNICE.bin"
        }
    ]
}
